<?xml version="1.0" encoding="utf-8"?>
<!-- Generator: Adobe Illustrator 24.3.0, SVG Export Plug-In . SVG Version: 6.00 Build 0)  -->
<svg version="1.1" id="Layer_1" xmlns="http://www.w3.org/2000/svg" xmlns:xlink="http://www.w3.org/1999/xlink" x="0px" y="0px"
	 viewBox="0 0 2017 1816" style="enable-background:new 0 0 2017 1816;" xml:space="preserve">
<style type="text/css">
	.st0{fill:#34A853;}
	.st1{fill:#FBBC04;}
	.st2{fill:#4285F4;}
	.st3{fill:#1A73E8;}
	.st4{fill:#EA4335;}
</style>
<g>
	<path class="st0" d="M724.2,1345.3c56,70.1,113.1,158.2,143,211.4c36.4,69.2,51.4,115.9,78.5,199.6c15.8,45.8,30.9,59.7,62.5,59.7
		c34.6,0,50.4-23.4,62.5-59.7c25.3-78.5,44.8-138.2,75.7-195.2c119.2-224.7,313.4-384.4,422.8-603.2c0,0,72-133.6,72-320.8
		c0-174.5-71-295.7-71-295.7L724.6,1346.7L724.2,1345.3z"/>
	<path class="st1" d="M437.4,934.3c68.2,155.2,198.1,291.3,286.8,411l470.1-557.4c0,0-66.4,86.9-186.3,86.9
		c-133.6,0-242.5-106.4-242.5-241c0-92.5,55.1-156.7,55.1-156.7C474.8,528.6,494,612.4,436.3,934L437.4,934.3z"/>
	<path class="st2" d="M1200.3,29C1357,79.4,1490,185.7,1569.9,341l-375.5,448c0,0,55.1-64.5,55.1-156.7c0-137.3-115.9-241-241-241
		c-118.7,0-186.3,85.9-186.3,85.9c28.8-65.6,326.7-425.8,378.5-448L1200.3,29z"/>
	<path class="st3" d="M523.1,226.1C616.6,114.9,780.4-0.1,1006.6-0.1c109.3,0,192.2,29,192.2,29l-377,448
		c-25.4-13.8-273.5-207-298.6-251.3V226.1z"/>
	<path class="st4" d="M437.4,934.3c0,0-61.7-122.4-61.7-298.6c0-167.1,65.3-313.4,147.8-408l298.6,251.3L437.8,934.3H437.4z"/>
</g>
</svg>
